G04 #@! TF.GenerationSoftware,KiCad,Pcbnew,8.0.4*
G04 #@! TF.CreationDate,2024-12-01T16:30:53-06:00*
G04 #@! TF.ProjectId,SuzyQ,53757a79-512e-46b6-9963-61645f706362,1.0*
G04 #@! TF.SameCoordinates,Original*
G04 #@! TF.FileFunction,Copper,L2,Bot*
G04 #@! TF.FilePolarity,Positive*
%FSLAX46Y46*%
G04 Gerber Fmt 4.6, Leading zero omitted, Abs format (unit mm)*
G04 Created by KiCad (PCBNEW 8.0.4) date 2024-12-01 16:30:53*
%MOMM*%
%LPD*%
G01*
G04 APERTURE LIST*
G04 #@! TA.AperFunction,ComponentPad*
%ADD10O,1.800000X1.200000*%
G04 #@! TD*
G04 #@! TA.AperFunction,ComponentPad*
%ADD11O,2.000000X1.200000*%
G04 #@! TD*
G04 #@! TA.AperFunction,ViaPad*
%ADD12C,0.600000*%
G04 #@! TD*
G04 #@! TA.AperFunction,Conductor*
%ADD13C,0.300000*%
G04 #@! TD*
G04 APERTURE END LIST*
D10*
X136000000Y-91830000D03*
X136000000Y-83170000D03*
D11*
X131820000Y-83170000D03*
X131820000Y-91830000D03*
X116010000Y-83170000D03*
X116010000Y-91830000D03*
D10*
X111830000Y-91830000D03*
X111830000Y-83170000D03*
D12*
X126900000Y-87250000D03*
X128200000Y-88600000D03*
X125200000Y-85250000D03*
X125200000Y-87900000D03*
D13*
X125200000Y-87900000D02*
X125200000Y-85250000D01*
X128200000Y-88600000D02*
X128200000Y-88550000D01*
X128200000Y-88550000D02*
X126900000Y-87250000D01*
G04 #@! TA.AperFunction,Conductor*
G36*
X110501258Y-82520185D02*
G01*
X110547013Y-82572989D01*
X110556957Y-82642147D01*
X110544704Y-82680795D01*
X110510591Y-82747744D01*
X110457085Y-82912415D01*
X110455884Y-82919999D01*
X110455885Y-82920000D01*
X111214316Y-82920000D01*
X111209921Y-82924395D01*
X111157260Y-83015606D01*
X111130001Y-83117339D01*
X111130001Y-83222661D01*
X111157260Y-83324394D01*
X111209921Y-83415605D01*
X111214316Y-83420000D01*
X110455885Y-83420000D01*
X110457085Y-83427584D01*
X110510591Y-83592255D01*
X110589195Y-83746524D01*
X110690967Y-83886602D01*
X110813397Y-84009032D01*
X110953475Y-84110804D01*
X111107742Y-84189408D01*
X111272415Y-84242914D01*
X111443429Y-84270000D01*
X111580000Y-84270000D01*
X111580000Y-83569999D01*
X112080000Y-83569999D01*
X112080000Y-84270000D01*
X112216571Y-84270000D01*
X112387584Y-84242914D01*
X112552257Y-84189408D01*
X112706524Y-84110804D01*
X112846602Y-84009032D01*
X112969032Y-83886602D01*
X113070804Y-83746524D01*
X113149408Y-83592255D01*
X113202914Y-83427584D01*
X113204115Y-83420000D01*
X112445684Y-83420000D01*
X112450079Y-83415605D01*
X112502740Y-83324394D01*
X112529999Y-83222661D01*
X112529999Y-83117339D01*
X112502740Y-83015606D01*
X112450079Y-82924395D01*
X112445684Y-82920000D01*
X113204115Y-82920000D01*
X113204115Y-82919999D01*
X113202914Y-82912415D01*
X113149408Y-82747744D01*
X113115296Y-82680795D01*
X113102400Y-82612126D01*
X113128676Y-82547386D01*
X113185782Y-82507128D01*
X113225781Y-82500500D01*
X114514219Y-82500500D01*
X114581258Y-82520185D01*
X114627013Y-82572989D01*
X114636957Y-82642147D01*
X114624704Y-82680795D01*
X114590591Y-82747744D01*
X114537085Y-82912415D01*
X114535884Y-82919999D01*
X114535885Y-82920000D01*
X115294304Y-82920000D01*
X115289909Y-82924395D01*
X115237248Y-83015606D01*
X115209989Y-83117339D01*
X115209989Y-83222661D01*
X115237248Y-83324394D01*
X115289909Y-83415605D01*
X115294304Y-83420000D01*
X114535885Y-83420000D01*
X114537085Y-83427584D01*
X114590591Y-83592255D01*
X114669195Y-83746524D01*
X114770967Y-83886602D01*
X114893401Y-84009036D01*
X114971427Y-84065724D01*
X115014094Y-84121054D01*
X115020073Y-84190667D01*
X115001646Y-84234933D01*
X114955691Y-84303709D01*
X114955687Y-84303716D01*
X114908538Y-84417545D01*
X114908535Y-84417555D01*
X114884500Y-84538389D01*
X114884500Y-84661610D01*
X114908535Y-84782444D01*
X114908538Y-84782454D01*
X114955687Y-84896283D01*
X114955692Y-84896292D01*
X115024141Y-84998732D01*
X115024144Y-84998736D01*
X115111263Y-85085855D01*
X115111267Y-85085858D01*
X115213707Y-85154307D01*
X115213713Y-85154310D01*
X115213714Y-85154311D01*
X115327548Y-85201463D01*
X115448389Y-85225499D01*
X115448393Y-85225500D01*
X115448394Y-85225500D01*
X115571607Y-85225500D01*
X115571608Y-85225499D01*
X115692452Y-85201463D01*
X115806286Y-85154311D01*
X115908733Y-85085858D01*
X115995858Y-84998733D01*
X116064311Y-84896286D01*
X116111463Y-84782452D01*
X116135500Y-84661606D01*
X116135500Y-84538394D01*
X116111591Y-84418191D01*
X116117818Y-84348599D01*
X116160682Y-84293422D01*
X116226571Y-84270178D01*
X116233208Y-84270000D01*
X116496571Y-84270000D01*
X116667584Y-84242914D01*
X116832257Y-84189408D01*
X116986524Y-84110804D01*
X117126602Y-84009032D01*
X117249032Y-83886602D01*
X117350804Y-83746524D01*
X117429408Y-83592255D01*
X117482914Y-83427584D01*
X117484115Y-83420000D01*
X116725696Y-83420000D01*
X116730091Y-83415605D01*
X116782752Y-83324394D01*
X116810011Y-83222661D01*
X116810011Y-83117339D01*
X116782752Y-83015606D01*
X116730091Y-82924395D01*
X116725696Y-82920000D01*
X117484115Y-82920000D01*
X117484115Y-82919999D01*
X117482914Y-82912415D01*
X117429408Y-82747744D01*
X117395296Y-82680795D01*
X117382400Y-82612126D01*
X117408676Y-82547386D01*
X117465782Y-82507128D01*
X117505781Y-82500500D01*
X130324219Y-82500500D01*
X130391258Y-82520185D01*
X130437013Y-82572989D01*
X130446957Y-82642147D01*
X130434704Y-82680795D01*
X130400591Y-82747744D01*
X130347085Y-82912415D01*
X130345884Y-82919999D01*
X130345885Y-82920000D01*
X131104329Y-82920000D01*
X131099934Y-82924395D01*
X131047273Y-83015606D01*
X131020014Y-83117339D01*
X131020014Y-83222661D01*
X131047273Y-83324394D01*
X131099934Y-83415605D01*
X131104329Y-83420000D01*
X130345885Y-83420000D01*
X130347085Y-83427584D01*
X130400591Y-83592255D01*
X130479195Y-83746524D01*
X130580967Y-83886602D01*
X130703397Y-84009032D01*
X130843475Y-84110804D01*
X130997742Y-84189408D01*
X131162415Y-84242914D01*
X131333429Y-84270000D01*
X131596792Y-84270000D01*
X131663831Y-84289685D01*
X131709586Y-84342489D01*
X131719530Y-84411647D01*
X131718409Y-84418191D01*
X131694500Y-84538389D01*
X131694500Y-84661610D01*
X131718535Y-84782444D01*
X131718538Y-84782454D01*
X131765687Y-84896283D01*
X131765692Y-84896292D01*
X131834141Y-84998732D01*
X131834144Y-84998736D01*
X131921263Y-85085855D01*
X131921267Y-85085858D01*
X132023707Y-85154307D01*
X132023713Y-85154310D01*
X132023714Y-85154311D01*
X132137548Y-85201463D01*
X132258389Y-85225499D01*
X132258393Y-85225500D01*
X132258394Y-85225500D01*
X132381607Y-85225500D01*
X132381608Y-85225499D01*
X132502452Y-85201463D01*
X132616286Y-85154311D01*
X132718733Y-85085858D01*
X132805858Y-84998733D01*
X132874311Y-84896286D01*
X132921463Y-84782452D01*
X132945500Y-84661606D01*
X132945500Y-84538394D01*
X132921463Y-84417548D01*
X132874311Y-84303714D01*
X132874308Y-84303709D01*
X132874307Y-84303707D01*
X132828354Y-84234934D01*
X132807476Y-84168257D01*
X132825960Y-84100876D01*
X132858572Y-84065724D01*
X132936598Y-84009036D01*
X133059032Y-83886602D01*
X133160804Y-83746524D01*
X133239408Y-83592255D01*
X133292914Y-83427584D01*
X133294115Y-83420000D01*
X132535671Y-83420000D01*
X132540066Y-83415605D01*
X132592727Y-83324394D01*
X132619986Y-83222661D01*
X132619986Y-83117339D01*
X132592727Y-83015606D01*
X132540066Y-82924395D01*
X132535671Y-82920000D01*
X133294115Y-82920000D01*
X133294115Y-82919999D01*
X133292914Y-82912415D01*
X133239408Y-82747744D01*
X133205296Y-82680795D01*
X133192400Y-82612126D01*
X133218676Y-82547386D01*
X133275782Y-82507128D01*
X133315781Y-82500500D01*
X134604219Y-82500500D01*
X134671258Y-82520185D01*
X134717013Y-82572989D01*
X134726957Y-82642147D01*
X134714704Y-82680795D01*
X134680591Y-82747744D01*
X134627085Y-82912415D01*
X134625884Y-82919999D01*
X134625885Y-82920000D01*
X135384316Y-82920000D01*
X135379921Y-82924395D01*
X135327260Y-83015606D01*
X135300001Y-83117339D01*
X135300001Y-83222661D01*
X135327260Y-83324394D01*
X135379921Y-83415605D01*
X135384316Y-83420000D01*
X134625885Y-83420000D01*
X134627085Y-83427584D01*
X134680591Y-83592255D01*
X134759195Y-83746524D01*
X134860967Y-83886602D01*
X134983397Y-84009032D01*
X135123475Y-84110804D01*
X135277742Y-84189408D01*
X135442415Y-84242914D01*
X135613429Y-84270000D01*
X135750000Y-84270000D01*
X135750000Y-83569999D01*
X136250000Y-83569999D01*
X136250000Y-84270000D01*
X136386571Y-84270000D01*
X136557584Y-84242914D01*
X136722257Y-84189408D01*
X136876524Y-84110804D01*
X137016602Y-84009032D01*
X137139032Y-83886602D01*
X137240804Y-83746524D01*
X137319408Y-83592255D01*
X137372914Y-83427584D01*
X137374115Y-83420000D01*
X136615684Y-83420000D01*
X136620079Y-83415605D01*
X136672740Y-83324394D01*
X136699999Y-83222661D01*
X136699999Y-83117339D01*
X136672740Y-83015606D01*
X136620079Y-82924395D01*
X136615684Y-82920000D01*
X137374115Y-82920000D01*
X137374115Y-82919999D01*
X137372914Y-82912415D01*
X137319408Y-82747744D01*
X137285296Y-82680795D01*
X137272400Y-82612126D01*
X137298676Y-82547386D01*
X137355782Y-82507128D01*
X137395781Y-82500500D01*
X138165500Y-82500500D01*
X138232539Y-82520185D01*
X138278294Y-82572989D01*
X138289500Y-82624500D01*
X138289500Y-92375500D01*
X138269815Y-92442539D01*
X138217011Y-92488294D01*
X138165500Y-92499500D01*
X137395781Y-92499500D01*
X137328742Y-92479815D01*
X137282987Y-92427011D01*
X137273043Y-92357853D01*
X137285296Y-92319205D01*
X137319408Y-92252255D01*
X137372914Y-92087584D01*
X137374115Y-92080000D01*
X136615684Y-92080000D01*
X136620079Y-92075605D01*
X136672740Y-91984394D01*
X136699999Y-91882661D01*
X136699999Y-91777339D01*
X136672740Y-91675606D01*
X136620079Y-91584395D01*
X136615684Y-91580000D01*
X137374115Y-91580000D01*
X137374115Y-91579999D01*
X137372914Y-91572415D01*
X137319408Y-91407744D01*
X137240804Y-91253475D01*
X137139032Y-91113397D01*
X137016602Y-90990967D01*
X136876524Y-90889195D01*
X136722257Y-90810591D01*
X136557584Y-90757085D01*
X136386571Y-90730000D01*
X136250000Y-90730000D01*
X136250000Y-91430001D01*
X135750000Y-91430001D01*
X135750000Y-90730000D01*
X135613429Y-90730000D01*
X135442415Y-90757085D01*
X135277742Y-90810591D01*
X135123475Y-90889195D01*
X134983397Y-90990967D01*
X134860967Y-91113397D01*
X134759195Y-91253475D01*
X134680591Y-91407744D01*
X134627085Y-91572415D01*
X134625884Y-91579999D01*
X134625885Y-91580000D01*
X135384316Y-91580000D01*
X135379921Y-91584395D01*
X135327260Y-91675606D01*
X135300001Y-91777339D01*
X135300001Y-91882661D01*
X135327260Y-91984394D01*
X135379921Y-92075605D01*
X135384316Y-92080000D01*
X134625885Y-92080000D01*
X134627085Y-92087584D01*
X134680591Y-92252255D01*
X134714704Y-92319205D01*
X134727600Y-92387874D01*
X134701324Y-92452614D01*
X134644218Y-92492872D01*
X134604219Y-92499500D01*
X133315781Y-92499500D01*
X133248742Y-92479815D01*
X133202987Y-92427011D01*
X133193043Y-92357853D01*
X133205296Y-92319205D01*
X133239408Y-92252255D01*
X133292914Y-92087584D01*
X133294115Y-92080000D01*
X132535696Y-92080000D01*
X132540091Y-92075605D01*
X132592752Y-91984394D01*
X132620011Y-91882661D01*
X132620011Y-91777339D01*
X132592752Y-91675606D01*
X132540091Y-91584395D01*
X132535696Y-91580000D01*
X133294115Y-91580000D01*
X133294115Y-91579999D01*
X133292914Y-91572415D01*
X133239408Y-91407744D01*
X133160804Y-91253475D01*
X133059032Y-91113397D01*
X132936602Y-90990967D01*
X132858571Y-90934275D01*
X132815905Y-90878945D01*
X132809926Y-90809332D01*
X132828354Y-90765065D01*
X132874311Y-90696286D01*
X132921463Y-90582452D01*
X132945500Y-90461606D01*
X132945500Y-90338394D01*
X132921463Y-90217548D01*
X132874311Y-90103714D01*
X132874310Y-90103713D01*
X132874307Y-90103707D01*
X132805858Y-90001267D01*
X132805855Y-90001263D01*
X132718736Y-89914144D01*
X132718732Y-89914141D01*
X132616292Y-89845692D01*
X132616283Y-89845687D01*
X132502454Y-89798538D01*
X132502455Y-89798538D01*
X132502452Y-89798537D01*
X132502448Y-89798536D01*
X132502444Y-89798535D01*
X132381610Y-89774500D01*
X132381606Y-89774500D01*
X132258394Y-89774500D01*
X132258389Y-89774500D01*
X132137555Y-89798535D01*
X132137545Y-89798538D01*
X132023716Y-89845687D01*
X132023707Y-89845692D01*
X131921267Y-89914141D01*
X131921263Y-89914144D01*
X131834144Y-90001263D01*
X131834141Y-90001267D01*
X131765692Y-90103707D01*
X131765687Y-90103716D01*
X131718538Y-90217545D01*
X131718535Y-90217555D01*
X131694500Y-90338389D01*
X131694500Y-90461610D01*
X131718409Y-90581809D01*
X131712182Y-90651401D01*
X131669318Y-90706578D01*
X131603429Y-90729822D01*
X131596792Y-90730000D01*
X131333429Y-90730000D01*
X131162415Y-90757085D01*
X130997742Y-90810591D01*
X130843475Y-90889195D01*
X130703397Y-90990967D01*
X130580967Y-91113397D01*
X130479195Y-91253475D01*
X130400591Y-91407744D01*
X130347085Y-91572415D01*
X130345884Y-91579999D01*
X130345885Y-91580000D01*
X131104304Y-91580000D01*
X131099909Y-91584395D01*
X131047248Y-91675606D01*
X131019989Y-91777339D01*
X131019989Y-91882661D01*
X131047248Y-91984394D01*
X131099909Y-92075605D01*
X131104304Y-92080000D01*
X130345885Y-92080000D01*
X130347085Y-92087584D01*
X130400591Y-92252255D01*
X130434704Y-92319205D01*
X130447600Y-92387874D01*
X130421324Y-92452614D01*
X130364218Y-92492872D01*
X130324219Y-92499500D01*
X117505781Y-92499500D01*
X117438742Y-92479815D01*
X117392987Y-92427011D01*
X117383043Y-92357853D01*
X117395296Y-92319205D01*
X117429408Y-92252255D01*
X117482914Y-92087584D01*
X117484115Y-92080000D01*
X116725671Y-92080000D01*
X116730066Y-92075605D01*
X116782727Y-91984394D01*
X116809986Y-91882661D01*
X116809986Y-91777339D01*
X116782727Y-91675606D01*
X116730066Y-91584395D01*
X116725671Y-91580000D01*
X117484115Y-91580000D01*
X117484115Y-91579999D01*
X117482914Y-91572415D01*
X117429408Y-91407744D01*
X117350804Y-91253475D01*
X117249032Y-91113397D01*
X117126602Y-90990967D01*
X116986524Y-90889195D01*
X116832257Y-90810591D01*
X116667584Y-90757085D01*
X116496571Y-90730000D01*
X116233208Y-90730000D01*
X116166169Y-90710315D01*
X116120414Y-90657511D01*
X116110470Y-90588353D01*
X116111591Y-90581809D01*
X116135499Y-90461610D01*
X116135500Y-90461607D01*
X116135500Y-90338393D01*
X116135499Y-90338389D01*
X116111464Y-90217555D01*
X116111463Y-90217548D01*
X116064311Y-90103714D01*
X116064310Y-90103713D01*
X116064307Y-90103707D01*
X115995858Y-90001267D01*
X115995855Y-90001263D01*
X115908736Y-89914144D01*
X115908732Y-89914141D01*
X115806292Y-89845692D01*
X115806283Y-89845687D01*
X115692454Y-89798538D01*
X115692455Y-89798538D01*
X115692452Y-89798537D01*
X115692448Y-89798536D01*
X115692444Y-89798535D01*
X115571610Y-89774500D01*
X115571606Y-89774500D01*
X115448394Y-89774500D01*
X115448389Y-89774500D01*
X115327555Y-89798535D01*
X115327545Y-89798538D01*
X115213716Y-89845687D01*
X115213707Y-89845692D01*
X115111267Y-89914141D01*
X115111263Y-89914144D01*
X115024144Y-90001263D01*
X115024141Y-90001267D01*
X114955692Y-90103707D01*
X114955687Y-90103716D01*
X114908538Y-90217545D01*
X114908535Y-90217555D01*
X114884500Y-90338389D01*
X114884500Y-90461610D01*
X114908535Y-90582444D01*
X114908538Y-90582454D01*
X114955687Y-90696283D01*
X114955692Y-90696292D01*
X115001645Y-90765065D01*
X115022523Y-90831743D01*
X115004038Y-90899123D01*
X114971428Y-90934274D01*
X114893404Y-90990961D01*
X114893399Y-90990965D01*
X114770967Y-91113397D01*
X114669195Y-91253475D01*
X114590591Y-91407744D01*
X114537085Y-91572415D01*
X114535884Y-91579999D01*
X114535885Y-91580000D01*
X115294329Y-91580000D01*
X115289934Y-91584395D01*
X115237273Y-91675606D01*
X115210014Y-91777339D01*
X115210014Y-91882661D01*
X115237273Y-91984394D01*
X115289934Y-92075605D01*
X115294329Y-92080000D01*
X114535885Y-92080000D01*
X114537085Y-92087584D01*
X114590591Y-92252255D01*
X114624704Y-92319205D01*
X114637600Y-92387874D01*
X114611324Y-92452614D01*
X114554218Y-92492872D01*
X114514219Y-92499500D01*
X113225781Y-92499500D01*
X113158742Y-92479815D01*
X113112987Y-92427011D01*
X113103043Y-92357853D01*
X113115296Y-92319205D01*
X113149408Y-92252255D01*
X113202914Y-92087584D01*
X113204115Y-92080000D01*
X112445684Y-92080000D01*
X112450079Y-92075605D01*
X112502740Y-91984394D01*
X112529999Y-91882661D01*
X112529999Y-91777339D01*
X112502740Y-91675606D01*
X112450079Y-91584395D01*
X112445684Y-91580000D01*
X113204115Y-91580000D01*
X113204115Y-91579999D01*
X113202914Y-91572415D01*
X113149408Y-91407744D01*
X113070804Y-91253475D01*
X112969032Y-91113397D01*
X112846602Y-90990967D01*
X112706524Y-90889195D01*
X112552257Y-90810591D01*
X112387584Y-90757085D01*
X112216571Y-90730000D01*
X112080000Y-90730000D01*
X112080000Y-91430001D01*
X111580000Y-91430001D01*
X111580000Y-90730000D01*
X111443429Y-90730000D01*
X111272415Y-90757085D01*
X111107742Y-90810591D01*
X110953475Y-90889195D01*
X110813397Y-90990967D01*
X110690967Y-91113397D01*
X110589195Y-91253475D01*
X110510591Y-91407744D01*
X110457085Y-91572415D01*
X110455884Y-91579999D01*
X110455885Y-91580000D01*
X111214316Y-91580000D01*
X111209921Y-91584395D01*
X111157260Y-91675606D01*
X111130001Y-91777339D01*
X111130001Y-91882661D01*
X111157260Y-91984394D01*
X111209921Y-92075605D01*
X111214316Y-92080000D01*
X110455885Y-92080000D01*
X110457085Y-92087584D01*
X110510591Y-92252255D01*
X110544704Y-92319205D01*
X110557600Y-92387874D01*
X110531324Y-92452614D01*
X110474218Y-92492872D01*
X110434219Y-92499500D01*
X109624500Y-92499500D01*
X109557461Y-92479815D01*
X109511706Y-92427011D01*
X109500500Y-92375500D01*
X109500500Y-85249996D01*
X124394435Y-85249996D01*
X124394435Y-85250003D01*
X124414630Y-85429249D01*
X124414631Y-85429254D01*
X124474211Y-85599524D01*
X124530493Y-85689094D01*
X124549500Y-85755067D01*
X124549500Y-87394931D01*
X124530494Y-87460903D01*
X124474211Y-87550477D01*
X124474209Y-87550481D01*
X124414633Y-87720737D01*
X124414630Y-87720750D01*
X124394435Y-87899996D01*
X124394435Y-87900003D01*
X124414630Y-88079249D01*
X124414631Y-88079254D01*
X124474211Y-88249523D01*
X124570184Y-88402262D01*
X124697738Y-88529816D01*
X124850478Y-88625789D01*
X125020745Y-88685368D01*
X125020750Y-88685369D01*
X125199996Y-88705565D01*
X125200000Y-88705565D01*
X125200004Y-88705565D01*
X125379249Y-88685369D01*
X125379252Y-88685368D01*
X125379255Y-88685368D01*
X125549522Y-88625789D01*
X125702262Y-88529816D01*
X125829816Y-88402262D01*
X125925789Y-88249522D01*
X125985368Y-88079255D01*
X125997026Y-87975788D01*
X126005565Y-87900003D01*
X126005565Y-87899997D01*
X125988291Y-87746689D01*
X126000345Y-87677867D01*
X126047694Y-87626487D01*
X126115305Y-87608863D01*
X126181710Y-87630589D01*
X126216504Y-87666832D01*
X126270182Y-87752260D01*
X126270184Y-87752262D01*
X126397738Y-87879816D01*
X126488080Y-87936582D01*
X126541557Y-87970184D01*
X126550478Y-87975789D01*
X126720745Y-88035368D01*
X126727974Y-88036182D01*
X126792388Y-88063246D01*
X126801776Y-88071722D01*
X127371928Y-88641874D01*
X127405413Y-88703197D01*
X127407467Y-88715671D01*
X127414630Y-88779250D01*
X127414631Y-88779254D01*
X127474211Y-88949523D01*
X127570184Y-89102262D01*
X127697738Y-89229816D01*
X127850478Y-89325789D01*
X128020745Y-89385368D01*
X128020750Y-89385369D01*
X128199996Y-89405565D01*
X128200000Y-89405565D01*
X128200004Y-89405565D01*
X128379249Y-89385369D01*
X128379252Y-89385368D01*
X128379255Y-89385368D01*
X128549522Y-89325789D01*
X128702262Y-89229816D01*
X128829816Y-89102262D01*
X128925789Y-88949522D01*
X128985368Y-88779255D01*
X128993938Y-88703197D01*
X129005565Y-88600003D01*
X129005565Y-88599996D01*
X128985369Y-88420750D01*
X128985368Y-88420745D01*
X128925789Y-88250478D01*
X128925188Y-88249522D01*
X128829815Y-88097737D01*
X128702262Y-87970184D01*
X128549519Y-87874209D01*
X128414154Y-87826842D01*
X128367428Y-87797482D01*
X127721722Y-87151776D01*
X127688237Y-87090453D01*
X127686182Y-87077973D01*
X127685368Y-87070745D01*
X127625789Y-86900478D01*
X127529816Y-86747738D01*
X127402262Y-86620184D01*
X127249523Y-86524211D01*
X127079254Y-86464631D01*
X127079249Y-86464630D01*
X126900004Y-86444435D01*
X126899996Y-86444435D01*
X126720750Y-86464630D01*
X126720745Y-86464631D01*
X126550476Y-86524211D01*
X126397737Y-86620184D01*
X126270184Y-86747737D01*
X126174211Y-86900476D01*
X126114631Y-87070745D01*
X126114630Y-87070750D01*
X126097720Y-87220840D01*
X126070654Y-87285254D01*
X126013059Y-87324810D01*
X125943222Y-87326947D01*
X125883316Y-87290989D01*
X125852360Y-87228351D01*
X125850500Y-87206957D01*
X125850500Y-85755067D01*
X125869507Y-85689094D01*
X125925788Y-85599524D01*
X125985368Y-85429254D01*
X125985369Y-85429249D01*
X126005565Y-85250003D01*
X126005565Y-85249996D01*
X125985369Y-85070750D01*
X125985368Y-85070745D01*
X125960170Y-84998733D01*
X125925789Y-84900478D01*
X125829816Y-84747738D01*
X125702262Y-84620184D01*
X125549523Y-84524211D01*
X125379254Y-84464631D01*
X125379249Y-84464630D01*
X125200004Y-84444435D01*
X125199996Y-84444435D01*
X125020750Y-84464630D01*
X125020745Y-84464631D01*
X124850476Y-84524211D01*
X124697737Y-84620184D01*
X124570184Y-84747737D01*
X124474211Y-84900476D01*
X124414631Y-85070745D01*
X124414630Y-85070750D01*
X124394435Y-85249996D01*
X109500500Y-85249996D01*
X109500500Y-82624500D01*
X109520185Y-82557461D01*
X109572989Y-82511706D01*
X109624500Y-82500500D01*
X110434219Y-82500500D01*
X110501258Y-82520185D01*
G37*
G04 #@! TD.AperFunction*
M02*
