G04 #@! TF.GenerationSoftware,KiCad,Pcbnew,8.0.4*
G04 #@! TF.CreationDate,2024-12-01T16:30:53-06:00*
G04 #@! TF.ProjectId,SuzyQ,53757a79-512e-46b6-9963-61645f706362,1.0*
G04 #@! TF.SameCoordinates,Original*
G04 #@! TF.FileFunction,Copper,L1,Top*
G04 #@! TF.FilePolarity,Positive*
%FSLAX46Y46*%
G04 Gerber Fmt 4.6, Leading zero omitted, Abs format (unit mm)*
G04 Created by KiCad (PCBNEW 8.0.4) date 2024-12-01 16:30:53*
%MOMM*%
%LPD*%
G01*
G04 APERTURE LIST*
G04 Aperture macros list*
%AMRoundRect*
0 Rectangle with rounded corners*
0 $1 Rounding radius*
0 $2 $3 $4 $5 $6 $7 $8 $9 X,Y pos of 4 corners*
0 Add a 4 corners polygon primitive as box body*
4,1,4,$2,$3,$4,$5,$6,$7,$8,$9,$2,$3,0*
0 Add four circle primitives for the rounded corners*
1,1,$1+$1,$2,$3*
1,1,$1+$1,$4,$5*
1,1,$1+$1,$6,$7*
1,1,$1+$1,$8,$9*
0 Add four rect primitives between the rounded corners*
20,1,$1+$1,$2,$3,$4,$5,0*
20,1,$1+$1,$4,$5,$6,$7,0*
20,1,$1+$1,$6,$7,$8,$9,0*
20,1,$1+$1,$8,$9,$2,$3,0*%
G04 Aperture macros list end*
G04 #@! TA.AperFunction,SMDPad,CuDef*
%ADD10RoundRect,0.250000X0.450000X-0.350000X0.450000X0.350000X-0.450000X0.350000X-0.450000X-0.350000X0*%
G04 #@! TD*
G04 #@! TA.AperFunction,SMDPad,CuDef*
%ADD11R,1.300000X0.300000*%
G04 #@! TD*
G04 #@! TA.AperFunction,ComponentPad*
%ADD12O,1.800000X1.200000*%
G04 #@! TD*
G04 #@! TA.AperFunction,ComponentPad*
%ADD13O,2.000000X1.200000*%
G04 #@! TD*
G04 #@! TA.AperFunction,ViaPad*
%ADD14C,0.600000*%
G04 #@! TD*
G04 #@! TA.AperFunction,Conductor*
%ADD15C,0.300000*%
G04 #@! TD*
G04 APERTURE END LIST*
D10*
X125200000Y-90900000D03*
X125200000Y-88900000D03*
X122500000Y-86700000D03*
X122500000Y-84700000D03*
D11*
X131060000Y-90550000D03*
X131060000Y-89750000D03*
X131060000Y-89250000D03*
X131060000Y-88250000D03*
X131060000Y-86750000D03*
X131060000Y-85750000D03*
X131060000Y-85250000D03*
X131060000Y-84450000D03*
X131060000Y-84150000D03*
X131060000Y-84950000D03*
X131060000Y-86250000D03*
X131060000Y-87250000D03*
X131060000Y-87750000D03*
X131060000Y-88750000D03*
X131060000Y-90050000D03*
X131060000Y-90850000D03*
D12*
X136000000Y-91830000D03*
X136000000Y-83170000D03*
D13*
X131820000Y-83170000D03*
X131820000Y-91830000D03*
X116010000Y-83170000D03*
X116010000Y-91830000D03*
D12*
X111830000Y-91830000D03*
X111830000Y-83170000D03*
D11*
X116770000Y-84150000D03*
X116770000Y-84950000D03*
X116770000Y-86250000D03*
X116770000Y-87250000D03*
X116770000Y-87750000D03*
X116770000Y-88750000D03*
X116770000Y-90050000D03*
X116770000Y-90850000D03*
X116770000Y-90550000D03*
X116770000Y-89750000D03*
X116770000Y-89250000D03*
X116770000Y-88250000D03*
X116770000Y-86750000D03*
X116770000Y-85750000D03*
X116770000Y-85250000D03*
X116770000Y-84450000D03*
D14*
X126900000Y-87250000D03*
X128200000Y-88600000D03*
X125200000Y-85250000D03*
X125200000Y-87900000D03*
D15*
X126900000Y-87250000D02*
X131060000Y-87250000D01*
X124705456Y-87250000D02*
X126900000Y-87250000D01*
X128550000Y-88250000D02*
X128200000Y-88600000D01*
X131060000Y-88250000D02*
X128550000Y-88250000D01*
X125200000Y-88900000D02*
X125200000Y-87900000D01*
X132060000Y-87750000D02*
X131060000Y-87750000D01*
X132300000Y-87510000D02*
X132060000Y-87750000D01*
X132060000Y-86750000D02*
X132300000Y-86990000D01*
X131060000Y-86750000D02*
X132060000Y-86750000D01*
X132300000Y-86990000D02*
X132300000Y-87510000D01*
X115956016Y-85250000D02*
X116770000Y-85250000D01*
X115400000Y-89193984D02*
X115400000Y-85806016D01*
X115956016Y-89750000D02*
X115400000Y-89193984D01*
X115400000Y-85806016D02*
X115956016Y-85250000D01*
X116770000Y-89750000D02*
X115956016Y-89750000D01*
X131060000Y-84950000D02*
X131060000Y-85250000D01*
X131060000Y-84150000D02*
X131060000Y-84450000D01*
X131060000Y-90050000D02*
X131060000Y-89750000D01*
X131060000Y-90550000D02*
X131060000Y-90850000D01*
X116770000Y-84450000D02*
X116770000Y-84150000D01*
X116770000Y-90550000D02*
X116770000Y-90850000D01*
X131060000Y-83930000D02*
X131820000Y-83170000D01*
X131060000Y-84450000D02*
X131060000Y-83930000D01*
X131060000Y-90550000D02*
X131060000Y-91070000D01*
X131060000Y-91070000D02*
X131820000Y-91830000D01*
X116770000Y-83930000D02*
X116010000Y-83170000D01*
X116770000Y-84150000D02*
X116770000Y-83930000D01*
X116770000Y-90850000D02*
X116770000Y-91070000D01*
X116770000Y-91070000D02*
X116010000Y-91830000D01*
X123050000Y-85250000D02*
X122500000Y-84700000D01*
X131060000Y-85250000D02*
X123050000Y-85250000D01*
X121950000Y-85250000D02*
X116770000Y-85250000D01*
X122500000Y-84700000D02*
X121950000Y-85250000D01*
X130450000Y-89750000D02*
X131060000Y-89750000D01*
X128350000Y-91850000D02*
X130450000Y-89750000D01*
X119370000Y-91850000D02*
X128350000Y-91850000D01*
X116770000Y-89750000D02*
X117270000Y-89750000D01*
X117270000Y-89750000D02*
X119370000Y-91850000D01*
X123592894Y-90900000D02*
X125200000Y-90900000D01*
X121942894Y-89250000D02*
X123592894Y-90900000D01*
X116770000Y-89250000D02*
X121942894Y-89250000D01*
X122050000Y-86250000D02*
X122500000Y-86700000D01*
X116770000Y-86250000D02*
X122050000Y-86250000D01*
X122150000Y-88750000D02*
X116770000Y-88750000D01*
X123300000Y-89900000D02*
X122150000Y-88750000D01*
X125855456Y-89900000D02*
X123300000Y-89900000D01*
X128005456Y-87750000D02*
X125855456Y-89900000D01*
X131060000Y-87750000D02*
X128005456Y-87750000D01*
X116770000Y-85750000D02*
X123205456Y-85750000D01*
X123205456Y-85750000D02*
X124705456Y-87250000D01*
X116770000Y-89750000D02*
X116770000Y-90050000D01*
X116770000Y-85250000D02*
X116770000Y-84950000D01*
G04 #@! TA.AperFunction,Conductor*
G36*
X110501258Y-82520185D02*
G01*
X110547013Y-82572989D01*
X110556957Y-82642147D01*
X110544704Y-82680795D01*
X110510591Y-82747744D01*
X110457085Y-82912415D01*
X110455884Y-82919999D01*
X110455885Y-82920000D01*
X111214316Y-82920000D01*
X111209921Y-82924395D01*
X111157260Y-83015606D01*
X111130001Y-83117339D01*
X111130001Y-83222661D01*
X111157260Y-83324394D01*
X111209921Y-83415605D01*
X111214316Y-83420000D01*
X110455885Y-83420000D01*
X110457085Y-83427584D01*
X110510591Y-83592255D01*
X110589195Y-83746524D01*
X110690967Y-83886602D01*
X110813397Y-84009032D01*
X110953475Y-84110804D01*
X111107742Y-84189408D01*
X111272415Y-84242914D01*
X111443429Y-84270000D01*
X111580000Y-84270000D01*
X111580000Y-83569999D01*
X112080000Y-83569999D01*
X112080000Y-84270000D01*
X112216571Y-84270000D01*
X112387584Y-84242914D01*
X112552257Y-84189408D01*
X112706524Y-84110804D01*
X112846602Y-84009032D01*
X112969032Y-83886602D01*
X113070804Y-83746524D01*
X113149408Y-83592255D01*
X113202914Y-83427584D01*
X113204115Y-83420000D01*
X112445684Y-83420000D01*
X112450079Y-83415605D01*
X112502740Y-83324394D01*
X112529999Y-83222661D01*
X112529999Y-83117339D01*
X112502740Y-83015606D01*
X112450079Y-82924395D01*
X112445684Y-82920000D01*
X113204115Y-82920000D01*
X113204115Y-82919999D01*
X113202914Y-82912415D01*
X113149408Y-82747744D01*
X113115296Y-82680795D01*
X113102400Y-82612126D01*
X113128676Y-82547386D01*
X113185782Y-82507128D01*
X113225781Y-82500500D01*
X114514219Y-82500500D01*
X114581258Y-82520185D01*
X114627013Y-82572989D01*
X114636957Y-82642147D01*
X114624704Y-82680795D01*
X114590591Y-82747744D01*
X114537085Y-82912415D01*
X114535884Y-82919999D01*
X114535885Y-82920000D01*
X115294304Y-82920000D01*
X115289909Y-82924395D01*
X115237248Y-83015606D01*
X115209989Y-83117339D01*
X115209989Y-83222661D01*
X115237248Y-83324394D01*
X115289909Y-83415605D01*
X115294304Y-83420000D01*
X114535885Y-83420000D01*
X114537085Y-83427584D01*
X114590591Y-83592255D01*
X114669195Y-83746524D01*
X114770967Y-83886602D01*
X114893401Y-84009036D01*
X114971427Y-84065724D01*
X115014094Y-84121054D01*
X115020073Y-84190667D01*
X115001646Y-84234933D01*
X114955691Y-84303709D01*
X114955687Y-84303716D01*
X114908538Y-84417545D01*
X114908535Y-84417555D01*
X114884500Y-84538389D01*
X114884500Y-84661610D01*
X114908535Y-84782444D01*
X114908538Y-84782454D01*
X114955687Y-84896283D01*
X114955692Y-84896292D01*
X115024141Y-84998732D01*
X115024144Y-84998736D01*
X115068057Y-85042649D01*
X115101542Y-85103972D01*
X115096558Y-85173664D01*
X115068058Y-85218011D01*
X114894722Y-85391348D01*
X114850490Y-85457545D01*
X114850491Y-85457546D01*
X114823534Y-85497890D01*
X114774499Y-85616271D01*
X114774497Y-85616277D01*
X114749500Y-85741944D01*
X114749500Y-89258055D01*
X114772861Y-89375493D01*
X114772861Y-89375496D01*
X114772862Y-89375496D01*
X114774499Y-89383729D01*
X114823534Y-89502109D01*
X114823535Y-89502111D01*
X114856955Y-89552128D01*
X114894726Y-89608657D01*
X114894727Y-89608658D01*
X115068058Y-89781988D01*
X115101543Y-89843311D01*
X115096559Y-89913002D01*
X115068058Y-89957350D01*
X115024144Y-90001263D01*
X115024141Y-90001267D01*
X114955692Y-90103707D01*
X114955687Y-90103716D01*
X114908538Y-90217545D01*
X114908535Y-90217555D01*
X114884500Y-90338389D01*
X114884500Y-90461610D01*
X114908535Y-90582444D01*
X114908538Y-90582454D01*
X114955687Y-90696283D01*
X114955692Y-90696292D01*
X115001645Y-90765065D01*
X115022523Y-90831743D01*
X115004038Y-90899123D01*
X114971428Y-90934274D01*
X114893404Y-90990961D01*
X114893399Y-90990965D01*
X114770967Y-91113397D01*
X114669195Y-91253475D01*
X114590591Y-91407744D01*
X114537085Y-91572415D01*
X114535884Y-91579999D01*
X114535885Y-91580000D01*
X115294329Y-91580000D01*
X115289934Y-91584395D01*
X115237273Y-91675606D01*
X115210014Y-91777339D01*
X115210014Y-91882661D01*
X115237273Y-91984394D01*
X115289934Y-92075605D01*
X115294329Y-92080000D01*
X114535885Y-92080000D01*
X114537085Y-92087584D01*
X114590591Y-92252255D01*
X114624704Y-92319205D01*
X114637600Y-92387874D01*
X114611324Y-92452614D01*
X114554218Y-92492872D01*
X114514219Y-92499500D01*
X113225781Y-92499500D01*
X113158742Y-92479815D01*
X113112987Y-92427011D01*
X113103043Y-92357853D01*
X113115296Y-92319205D01*
X113149408Y-92252255D01*
X113202914Y-92087584D01*
X113204115Y-92080000D01*
X112445684Y-92080000D01*
X112450079Y-92075605D01*
X112502740Y-91984394D01*
X112529999Y-91882661D01*
X112529999Y-91777339D01*
X112502740Y-91675606D01*
X112450079Y-91584395D01*
X112445684Y-91580000D01*
X113204115Y-91580000D01*
X113204115Y-91579999D01*
X113202914Y-91572415D01*
X113149408Y-91407744D01*
X113070804Y-91253475D01*
X112969032Y-91113397D01*
X112846602Y-90990967D01*
X112706524Y-90889195D01*
X112552257Y-90810591D01*
X112387584Y-90757085D01*
X112216571Y-90730000D01*
X112080000Y-90730000D01*
X112080000Y-91430001D01*
X111580000Y-91430001D01*
X111580000Y-90730000D01*
X111443429Y-90730000D01*
X111272415Y-90757085D01*
X111107742Y-90810591D01*
X110953475Y-90889195D01*
X110813397Y-90990967D01*
X110690967Y-91113397D01*
X110589195Y-91253475D01*
X110510591Y-91407744D01*
X110457085Y-91572415D01*
X110455884Y-91579999D01*
X110455885Y-91580000D01*
X111214316Y-91580000D01*
X111209921Y-91584395D01*
X111157260Y-91675606D01*
X111130001Y-91777339D01*
X111130001Y-91882661D01*
X111157260Y-91984394D01*
X111209921Y-92075605D01*
X111214316Y-92080000D01*
X110455885Y-92080000D01*
X110457085Y-92087584D01*
X110510591Y-92252255D01*
X110544704Y-92319205D01*
X110557600Y-92387874D01*
X110531324Y-92452614D01*
X110474218Y-92492872D01*
X110434219Y-92499500D01*
X109624500Y-92499500D01*
X109557461Y-92479815D01*
X109511706Y-92427011D01*
X109500500Y-92375500D01*
X109500500Y-82624500D01*
X109520185Y-82557461D01*
X109572989Y-82511706D01*
X109624500Y-82500500D01*
X110434219Y-82500500D01*
X110501258Y-82520185D01*
G37*
G04 #@! TD.AperFunction*
G04 #@! TA.AperFunction,Conductor*
G36*
X117316230Y-90720184D02*
G01*
X117336872Y-90736818D01*
X118887872Y-92287819D01*
X118921357Y-92349142D01*
X118916373Y-92418834D01*
X118874501Y-92474767D01*
X118809037Y-92499184D01*
X118800191Y-92499500D01*
X117505781Y-92499500D01*
X117438742Y-92479815D01*
X117392987Y-92427011D01*
X117383043Y-92357853D01*
X117395296Y-92319205D01*
X117429408Y-92252255D01*
X117482914Y-92087584D01*
X117484115Y-92080000D01*
X116725671Y-92080000D01*
X116730066Y-92075605D01*
X116782727Y-91984394D01*
X116809986Y-91882661D01*
X116809986Y-91777339D01*
X116782727Y-91675606D01*
X116730066Y-91584395D01*
X116725671Y-91580000D01*
X117484115Y-91580000D01*
X117484115Y-91579999D01*
X117482914Y-91572415D01*
X117429408Y-91407744D01*
X117350804Y-91253475D01*
X117249032Y-91113397D01*
X117126600Y-90990965D01*
X117126595Y-90990961D01*
X117035555Y-90924817D01*
X116992889Y-90869488D01*
X116986910Y-90799874D01*
X117019515Y-90738079D01*
X117080354Y-90703722D01*
X117108440Y-90700499D01*
X117249191Y-90700499D01*
X117316230Y-90720184D01*
G37*
G04 #@! TD.AperFunction*
G04 #@! TA.AperFunction,Conductor*
G36*
X130788599Y-90720184D02*
G01*
X130834354Y-90772988D01*
X130844298Y-90842146D01*
X130815273Y-90905702D01*
X130794445Y-90924817D01*
X130703404Y-90990961D01*
X130703399Y-90990965D01*
X130580967Y-91113397D01*
X130479195Y-91253475D01*
X130400591Y-91407744D01*
X130347085Y-91572415D01*
X130345884Y-91579999D01*
X130345885Y-91580000D01*
X131104304Y-91580000D01*
X131099909Y-91584395D01*
X131047248Y-91675606D01*
X131019989Y-91777339D01*
X131019989Y-91882661D01*
X131047248Y-91984394D01*
X131099909Y-92075605D01*
X131104304Y-92080000D01*
X130345885Y-92080000D01*
X130347085Y-92087584D01*
X130400591Y-92252255D01*
X130434704Y-92319205D01*
X130447600Y-92387874D01*
X130421324Y-92452614D01*
X130364218Y-92492872D01*
X130324219Y-92499500D01*
X128919809Y-92499500D01*
X128852770Y-92479815D01*
X128807015Y-92427011D01*
X128797071Y-92357853D01*
X128826096Y-92294297D01*
X128832128Y-92287819D01*
X130383127Y-90736818D01*
X130444450Y-90703333D01*
X130470808Y-90700499D01*
X130721560Y-90700499D01*
X130788599Y-90720184D01*
G37*
G04 #@! TD.AperFunction*
G04 #@! TA.AperFunction,Conductor*
G36*
X134671258Y-82520185D02*
G01*
X134717013Y-82572989D01*
X134726957Y-82642147D01*
X134714704Y-82680795D01*
X134680591Y-82747744D01*
X134627085Y-82912415D01*
X134625884Y-82919999D01*
X134625885Y-82920000D01*
X135384316Y-82920000D01*
X135379921Y-82924395D01*
X135327260Y-83015606D01*
X135300001Y-83117339D01*
X135300001Y-83222661D01*
X135327260Y-83324394D01*
X135379921Y-83415605D01*
X135384316Y-83420000D01*
X134625885Y-83420000D01*
X134627085Y-83427584D01*
X134680591Y-83592255D01*
X134759195Y-83746524D01*
X134860967Y-83886602D01*
X134983397Y-84009032D01*
X135123475Y-84110804D01*
X135277742Y-84189408D01*
X135442415Y-84242914D01*
X135613429Y-84270000D01*
X135750000Y-84270000D01*
X135750000Y-83569999D01*
X136250000Y-83569999D01*
X136250000Y-84270000D01*
X136386571Y-84270000D01*
X136557584Y-84242914D01*
X136722257Y-84189408D01*
X136876524Y-84110804D01*
X137016602Y-84009032D01*
X137139032Y-83886602D01*
X137240804Y-83746524D01*
X137319408Y-83592255D01*
X137372914Y-83427584D01*
X137374115Y-83420000D01*
X136615684Y-83420000D01*
X136620079Y-83415605D01*
X136672740Y-83324394D01*
X136699999Y-83222661D01*
X136699999Y-83117339D01*
X136672740Y-83015606D01*
X136620079Y-82924395D01*
X136615684Y-82920000D01*
X137374115Y-82920000D01*
X137374115Y-82919999D01*
X137372914Y-82912415D01*
X137319408Y-82747744D01*
X137285296Y-82680795D01*
X137272400Y-82612126D01*
X137298676Y-82547386D01*
X137355782Y-82507128D01*
X137395781Y-82500500D01*
X138165500Y-82500500D01*
X138232539Y-82520185D01*
X138278294Y-82572989D01*
X138289500Y-82624500D01*
X138289500Y-92375500D01*
X138269815Y-92442539D01*
X138217011Y-92488294D01*
X138165500Y-92499500D01*
X137395781Y-92499500D01*
X137328742Y-92479815D01*
X137282987Y-92427011D01*
X137273043Y-92357853D01*
X137285296Y-92319205D01*
X137319408Y-92252255D01*
X137372914Y-92087584D01*
X137374115Y-92080000D01*
X136615684Y-92080000D01*
X136620079Y-92075605D01*
X136672740Y-91984394D01*
X136699999Y-91882661D01*
X136699999Y-91777339D01*
X136672740Y-91675606D01*
X136620079Y-91584395D01*
X136615684Y-91580000D01*
X137374115Y-91580000D01*
X137374115Y-91579999D01*
X137372914Y-91572415D01*
X137319408Y-91407744D01*
X137240804Y-91253475D01*
X137139032Y-91113397D01*
X137016602Y-90990967D01*
X136876524Y-90889195D01*
X136722257Y-90810591D01*
X136557584Y-90757085D01*
X136386571Y-90730000D01*
X136250000Y-90730000D01*
X136250000Y-91430001D01*
X135750000Y-91430001D01*
X135750000Y-90730000D01*
X135613429Y-90730000D01*
X135442415Y-90757085D01*
X135277742Y-90810591D01*
X135123475Y-90889195D01*
X134983397Y-90990967D01*
X134860967Y-91113397D01*
X134759195Y-91253475D01*
X134680591Y-91407744D01*
X134627085Y-91572415D01*
X134625884Y-91579999D01*
X134625885Y-91580000D01*
X135384316Y-91580000D01*
X135379921Y-91584395D01*
X135327260Y-91675606D01*
X135300001Y-91777339D01*
X135300001Y-91882661D01*
X135327260Y-91984394D01*
X135379921Y-92075605D01*
X135384316Y-92080000D01*
X134625885Y-92080000D01*
X134627085Y-92087584D01*
X134680591Y-92252255D01*
X134714704Y-92319205D01*
X134727600Y-92387874D01*
X134701324Y-92452614D01*
X134644218Y-92492872D01*
X134604219Y-92499500D01*
X133315781Y-92499500D01*
X133248742Y-92479815D01*
X133202987Y-92427011D01*
X133193043Y-92357853D01*
X133205296Y-92319205D01*
X133239408Y-92252255D01*
X133292914Y-92087584D01*
X133294115Y-92080000D01*
X132535696Y-92080000D01*
X132540091Y-92075605D01*
X132592752Y-91984394D01*
X132620011Y-91882661D01*
X132620011Y-91777339D01*
X132592752Y-91675606D01*
X132540091Y-91584395D01*
X132535696Y-91580000D01*
X133294115Y-91580000D01*
X133294115Y-91579999D01*
X133292914Y-91572415D01*
X133239408Y-91407744D01*
X133160804Y-91253475D01*
X133059032Y-91113397D01*
X132936602Y-90990967D01*
X132858571Y-90934275D01*
X132815905Y-90878945D01*
X132809926Y-90809332D01*
X132828354Y-90765065D01*
X132874311Y-90696286D01*
X132921463Y-90582452D01*
X132945500Y-90461606D01*
X132945500Y-90338394D01*
X132921463Y-90217548D01*
X132874311Y-90103714D01*
X132874310Y-90103713D01*
X132874307Y-90103707D01*
X132805858Y-90001267D01*
X132805855Y-90001263D01*
X132718736Y-89914144D01*
X132718732Y-89914141D01*
X132616292Y-89845692D01*
X132616283Y-89845687D01*
X132502454Y-89798538D01*
X132502455Y-89798538D01*
X132502452Y-89798537D01*
X132502448Y-89798536D01*
X132502444Y-89798535D01*
X132381610Y-89774500D01*
X132381606Y-89774500D01*
X132334499Y-89774500D01*
X132267460Y-89754815D01*
X132221705Y-89702011D01*
X132210499Y-89650500D01*
X132210499Y-89552128D01*
X132210498Y-89552111D01*
X132206320Y-89513253D01*
X132206320Y-89486747D01*
X132210500Y-89447873D01*
X132210499Y-89052128D01*
X132210499Y-89052124D01*
X132210498Y-89052111D01*
X132206320Y-89013253D01*
X132206320Y-88986747D01*
X132210500Y-88947873D01*
X132210499Y-88552128D01*
X132210498Y-88552111D01*
X132206320Y-88513253D01*
X132206320Y-88486747D01*
X132208950Y-88462287D01*
X132235688Y-88397739D01*
X132284786Y-88360986D01*
X132368127Y-88326465D01*
X132386679Y-88314069D01*
X132474669Y-88255277D01*
X132805276Y-87924670D01*
X132876465Y-87818127D01*
X132925501Y-87699744D01*
X132925501Y-87699740D01*
X132925503Y-87699737D01*
X132934162Y-87656205D01*
X132934162Y-87656204D01*
X132950500Y-87574071D01*
X132950500Y-86925928D01*
X132925502Y-86800261D01*
X132925501Y-86800260D01*
X132925501Y-86800256D01*
X132876465Y-86681873D01*
X132876464Y-86681872D01*
X132876461Y-86681866D01*
X132821426Y-86599501D01*
X132821424Y-86599498D01*
X132805278Y-86575332D01*
X132805276Y-86575330D01*
X132474674Y-86244727D01*
X132474673Y-86244726D01*
X132368124Y-86173533D01*
X132284785Y-86139013D01*
X132230382Y-86095172D01*
X132208948Y-86037708D01*
X132206319Y-86013245D01*
X132206319Y-85986747D01*
X132210500Y-85947873D01*
X132210499Y-85552128D01*
X132210498Y-85552111D01*
X132206320Y-85513253D01*
X132206320Y-85486747D01*
X132210500Y-85447873D01*
X132210500Y-85349500D01*
X132230185Y-85282461D01*
X132282989Y-85236706D01*
X132334500Y-85225500D01*
X132381607Y-85225500D01*
X132381608Y-85225499D01*
X132502452Y-85201463D01*
X132616286Y-85154311D01*
X132718733Y-85085858D01*
X132805858Y-84998733D01*
X132874311Y-84896286D01*
X132921463Y-84782452D01*
X132945500Y-84661606D01*
X132945500Y-84538394D01*
X132921463Y-84417548D01*
X132874311Y-84303714D01*
X132874308Y-84303709D01*
X132874307Y-84303707D01*
X132828354Y-84234934D01*
X132807476Y-84168257D01*
X132825960Y-84100876D01*
X132858572Y-84065724D01*
X132936598Y-84009036D01*
X133059032Y-83886602D01*
X133160804Y-83746524D01*
X133239408Y-83592255D01*
X133292914Y-83427584D01*
X133294115Y-83420000D01*
X132535671Y-83420000D01*
X132540066Y-83415605D01*
X132592727Y-83324394D01*
X132619986Y-83222661D01*
X132619986Y-83117339D01*
X132592727Y-83015606D01*
X132540066Y-82924395D01*
X132535671Y-82920000D01*
X133294115Y-82920000D01*
X133294115Y-82919999D01*
X133292914Y-82912415D01*
X133239408Y-82747744D01*
X133205296Y-82680795D01*
X133192400Y-82612126D01*
X133218676Y-82547386D01*
X133275782Y-82507128D01*
X133315781Y-82500500D01*
X134604219Y-82500500D01*
X134671258Y-82520185D01*
G37*
G04 #@! TD.AperFunction*
G04 #@! TA.AperFunction,Conductor*
G36*
X130391258Y-82520185D02*
G01*
X130437013Y-82572989D01*
X130446957Y-82642147D01*
X130434704Y-82680795D01*
X130400591Y-82747744D01*
X130347085Y-82912415D01*
X130345884Y-82919999D01*
X130345885Y-82920000D01*
X131104329Y-82920000D01*
X131099934Y-82924395D01*
X131047273Y-83015606D01*
X131020014Y-83117339D01*
X131020014Y-83222661D01*
X131047273Y-83324394D01*
X131099934Y-83415605D01*
X131104329Y-83420000D01*
X130345885Y-83420000D01*
X130347085Y-83427584D01*
X130400591Y-83592255D01*
X130479195Y-83746524D01*
X130580967Y-83886602D01*
X130703397Y-84009032D01*
X130794444Y-84075181D01*
X130837110Y-84130511D01*
X130843089Y-84200125D01*
X130810484Y-84261920D01*
X130749645Y-84296277D01*
X130721559Y-84299500D01*
X130362130Y-84299500D01*
X130362123Y-84299501D01*
X130302516Y-84305908D01*
X130167671Y-84356202D01*
X130167664Y-84356206D01*
X130052456Y-84442452D01*
X130052455Y-84442453D01*
X130052454Y-84442454D01*
X129972087Y-84549811D01*
X129916153Y-84591682D01*
X129872820Y-84599500D01*
X125705068Y-84599500D01*
X125639096Y-84580494D01*
X125549522Y-84524210D01*
X125549518Y-84524209D01*
X125379262Y-84464633D01*
X125379249Y-84464630D01*
X125200004Y-84444435D01*
X125199996Y-84444435D01*
X125020750Y-84464630D01*
X125020737Y-84464633D01*
X124850481Y-84524209D01*
X124850477Y-84524210D01*
X124760904Y-84580494D01*
X124694932Y-84599500D01*
X123824499Y-84599500D01*
X123757460Y-84579815D01*
X123711705Y-84527011D01*
X123700499Y-84475500D01*
X123700499Y-84299998D01*
X123700498Y-84299981D01*
X123689999Y-84197203D01*
X123689998Y-84197200D01*
X123667899Y-84130511D01*
X123634814Y-84030666D01*
X123542712Y-83881344D01*
X123418656Y-83757288D01*
X123269334Y-83665186D01*
X123102797Y-83610001D01*
X123102795Y-83610000D01*
X123000010Y-83599500D01*
X121999998Y-83599500D01*
X121999980Y-83599501D01*
X121897203Y-83610000D01*
X121897200Y-83610001D01*
X121730668Y-83665185D01*
X121730663Y-83665187D01*
X121581342Y-83757289D01*
X121457289Y-83881342D01*
X121365187Y-84030663D01*
X121365186Y-84030666D01*
X121310001Y-84197203D01*
X121310001Y-84197204D01*
X121310000Y-84197204D01*
X121299500Y-84299983D01*
X121299500Y-84475500D01*
X121279815Y-84542539D01*
X121227011Y-84588294D01*
X121175500Y-84599500D01*
X117957180Y-84599500D01*
X117890141Y-84579815D01*
X117857913Y-84549811D01*
X117777546Y-84442454D01*
X117744272Y-84417545D01*
X117662335Y-84356206D01*
X117662328Y-84356202D01*
X117527482Y-84305908D01*
X117527483Y-84305908D01*
X117467883Y-84299501D01*
X117467881Y-84299500D01*
X117467873Y-84299500D01*
X117108441Y-84299500D01*
X117041402Y-84279815D01*
X116995647Y-84227011D01*
X116985703Y-84157853D01*
X117014728Y-84094297D01*
X117035556Y-84075181D01*
X117126602Y-84009032D01*
X117249032Y-83886602D01*
X117350804Y-83746524D01*
X117429408Y-83592255D01*
X117482914Y-83427584D01*
X117484115Y-83420000D01*
X116725696Y-83420000D01*
X116730091Y-83415605D01*
X116782752Y-83324394D01*
X116810011Y-83222661D01*
X116810011Y-83117339D01*
X116782752Y-83015606D01*
X116730091Y-82924395D01*
X116725696Y-82920000D01*
X117484115Y-82920000D01*
X117484115Y-82919999D01*
X117482914Y-82912415D01*
X117429408Y-82747744D01*
X117395296Y-82680795D01*
X117382400Y-82612126D01*
X117408676Y-82547386D01*
X117465782Y-82507128D01*
X117505781Y-82500500D01*
X130324219Y-82500500D01*
X130391258Y-82520185D01*
G37*
G04 #@! TD.AperFunction*
M02*
