%TF.GenerationSoftware,KiCad,Pcbnew,8.0.4*%
%TF.CreationDate,2024-12-01T16:30:58-06:00*%
%TF.ProjectId,SuzyQ,53757a79-512e-46b6-9963-61645f706362,1.0*%
%TF.SameCoordinates,Original*%
%TF.FileFunction,Drillmap*%
%TF.FilePolarity,Positive*%
%FSLAX45Y45*%
G04 Gerber Fmt 4.5, Leading zero omitted, Abs format (unit mm)*
G04 Created by KiCad (PCBNEW 8.0.4) date 2024-12-01 16:30:58*
%MOMM*%
%LPD*%
G01*
G04 APERTURE LIST*
%ADD10C,0.050000*%
%ADD11C,0.200000*%
%ADD12C,0.100000*%
G04 APERTURE END LIST*
D10*
X10900000Y-9300000D02*
X13879000Y-9300000D01*
X13879000Y-8200000D01*
X10900000Y-8200000D01*
X10900000Y-9300000D01*
D11*
D12*
X11513500Y-8422500D02*
X11588500Y-8497500D01*
X11588500Y-8422500D02*
X11513500Y-8497500D01*
X11513500Y-9002500D02*
X11588500Y-9077500D01*
X11588500Y-9002500D02*
X11513500Y-9077500D01*
X13194500Y-8422500D02*
X13269500Y-8497500D01*
X13269500Y-8422500D02*
X13194500Y-8497500D01*
X13194500Y-9002500D02*
X13269500Y-9077500D01*
X13269500Y-9002500D02*
X13194500Y-9077500D01*
D11*
X11158277Y-9613984D02*
X11158277Y-9413984D01*
X11158277Y-9413984D02*
X11205896Y-9413984D01*
X11205896Y-9413984D02*
X11234467Y-9423508D01*
X11234467Y-9423508D02*
X11253515Y-9442555D01*
X11253515Y-9442555D02*
X11263039Y-9461603D01*
X11263039Y-9461603D02*
X11272562Y-9499698D01*
X11272562Y-9499698D02*
X11272562Y-9528270D01*
X11272562Y-9528270D02*
X11263039Y-9566365D01*
X11263039Y-9566365D02*
X11253515Y-9585412D01*
X11253515Y-9585412D02*
X11234467Y-9604460D01*
X11234467Y-9604460D02*
X11205896Y-9613984D01*
X11205896Y-9613984D02*
X11158277Y-9613984D01*
X11358277Y-9613984D02*
X11358277Y-9480650D01*
X11358277Y-9518746D02*
X11367801Y-9499698D01*
X11367801Y-9499698D02*
X11377324Y-9490174D01*
X11377324Y-9490174D02*
X11396372Y-9480650D01*
X11396372Y-9480650D02*
X11415420Y-9480650D01*
X11482086Y-9613984D02*
X11482086Y-9480650D01*
X11482086Y-9413984D02*
X11472562Y-9423508D01*
X11472562Y-9423508D02*
X11482086Y-9433031D01*
X11482086Y-9433031D02*
X11491610Y-9423508D01*
X11491610Y-9423508D02*
X11482086Y-9413984D01*
X11482086Y-9413984D02*
X11482086Y-9433031D01*
X11605896Y-9613984D02*
X11586848Y-9604460D01*
X11586848Y-9604460D02*
X11577324Y-9585412D01*
X11577324Y-9585412D02*
X11577324Y-9413984D01*
X11710658Y-9613984D02*
X11691610Y-9604460D01*
X11691610Y-9604460D02*
X11682086Y-9585412D01*
X11682086Y-9585412D02*
X11682086Y-9413984D01*
X11939229Y-9613984D02*
X11939229Y-9413984D01*
X11939229Y-9413984D02*
X12005896Y-9556841D01*
X12005896Y-9556841D02*
X12072562Y-9413984D01*
X12072562Y-9413984D02*
X12072562Y-9613984D01*
X12253515Y-9613984D02*
X12253515Y-9509222D01*
X12253515Y-9509222D02*
X12243991Y-9490174D01*
X12243991Y-9490174D02*
X12224943Y-9480650D01*
X12224943Y-9480650D02*
X12186848Y-9480650D01*
X12186848Y-9480650D02*
X12167801Y-9490174D01*
X12253515Y-9604460D02*
X12234467Y-9613984D01*
X12234467Y-9613984D02*
X12186848Y-9613984D01*
X12186848Y-9613984D02*
X12167801Y-9604460D01*
X12167801Y-9604460D02*
X12158277Y-9585412D01*
X12158277Y-9585412D02*
X12158277Y-9566365D01*
X12158277Y-9566365D02*
X12167801Y-9547317D01*
X12167801Y-9547317D02*
X12186848Y-9537793D01*
X12186848Y-9537793D02*
X12234467Y-9537793D01*
X12234467Y-9537793D02*
X12253515Y-9528270D01*
X12348753Y-9480650D02*
X12348753Y-9680650D01*
X12348753Y-9490174D02*
X12367801Y-9480650D01*
X12367801Y-9480650D02*
X12405896Y-9480650D01*
X12405896Y-9480650D02*
X12424943Y-9490174D01*
X12424943Y-9490174D02*
X12434467Y-9499698D01*
X12434467Y-9499698D02*
X12443991Y-9518746D01*
X12443991Y-9518746D02*
X12443991Y-9575889D01*
X12443991Y-9575889D02*
X12434467Y-9594936D01*
X12434467Y-9594936D02*
X12424943Y-9604460D01*
X12424943Y-9604460D02*
X12405896Y-9613984D01*
X12405896Y-9613984D02*
X12367801Y-9613984D01*
X12367801Y-9613984D02*
X12348753Y-9604460D01*
X12529705Y-9594936D02*
X12539229Y-9604460D01*
X12539229Y-9604460D02*
X12529705Y-9613984D01*
X12529705Y-9613984D02*
X12520182Y-9604460D01*
X12520182Y-9604460D02*
X12529705Y-9594936D01*
X12529705Y-9594936D02*
X12529705Y-9613984D01*
X12529705Y-9490174D02*
X12539229Y-9499698D01*
X12539229Y-9499698D02*
X12529705Y-9509222D01*
X12529705Y-9509222D02*
X12520182Y-9499698D01*
X12520182Y-9499698D02*
X12529705Y-9490174D01*
X12529705Y-9490174D02*
X12529705Y-9509222D01*
D12*
X10822500Y-9905000D02*
X10897500Y-9980000D01*
X10897500Y-9905000D02*
X10822500Y-9980000D01*
D11*
X11196372Y-9833984D02*
X11215420Y-9833984D01*
X11215420Y-9833984D02*
X11234467Y-9843508D01*
X11234467Y-9843508D02*
X11243991Y-9853031D01*
X11243991Y-9853031D02*
X11253515Y-9872079D01*
X11253515Y-9872079D02*
X11263039Y-9910174D01*
X11263039Y-9910174D02*
X11263039Y-9957793D01*
X11263039Y-9957793D02*
X11253515Y-9995889D01*
X11253515Y-9995889D02*
X11243991Y-10014936D01*
X11243991Y-10014936D02*
X11234467Y-10024460D01*
X11234467Y-10024460D02*
X11215420Y-10033984D01*
X11215420Y-10033984D02*
X11196372Y-10033984D01*
X11196372Y-10033984D02*
X11177324Y-10024460D01*
X11177324Y-10024460D02*
X11167801Y-10014936D01*
X11167801Y-10014936D02*
X11158277Y-9995889D01*
X11158277Y-9995889D02*
X11148753Y-9957793D01*
X11148753Y-9957793D02*
X11148753Y-9910174D01*
X11148753Y-9910174D02*
X11158277Y-9872079D01*
X11158277Y-9872079D02*
X11167801Y-9853031D01*
X11167801Y-9853031D02*
X11177324Y-9843508D01*
X11177324Y-9843508D02*
X11196372Y-9833984D01*
X11348753Y-10014936D02*
X11358277Y-10024460D01*
X11358277Y-10024460D02*
X11348753Y-10033984D01*
X11348753Y-10033984D02*
X11339229Y-10024460D01*
X11339229Y-10024460D02*
X11348753Y-10014936D01*
X11348753Y-10014936D02*
X11348753Y-10033984D01*
X11424943Y-9833984D02*
X11558277Y-9833984D01*
X11558277Y-9833984D02*
X11472562Y-10033984D01*
X11729705Y-9833984D02*
X11634467Y-9833984D01*
X11634467Y-9833984D02*
X11624943Y-9929222D01*
X11624943Y-9929222D02*
X11634467Y-9919698D01*
X11634467Y-9919698D02*
X11653515Y-9910174D01*
X11653515Y-9910174D02*
X11701134Y-9910174D01*
X11701134Y-9910174D02*
X11720182Y-9919698D01*
X11720182Y-9919698D02*
X11729705Y-9929222D01*
X11729705Y-9929222D02*
X11739229Y-9948270D01*
X11739229Y-9948270D02*
X11739229Y-9995889D01*
X11739229Y-9995889D02*
X11729705Y-10014936D01*
X11729705Y-10014936D02*
X11720182Y-10024460D01*
X11720182Y-10024460D02*
X11701134Y-10033984D01*
X11701134Y-10033984D02*
X11653515Y-10033984D01*
X11653515Y-10033984D02*
X11634467Y-10024460D01*
X11634467Y-10024460D02*
X11624943Y-10014936D01*
X11863039Y-9833984D02*
X11882086Y-9833984D01*
X11882086Y-9833984D02*
X11901134Y-9843508D01*
X11901134Y-9843508D02*
X11910658Y-9853031D01*
X11910658Y-9853031D02*
X11920182Y-9872079D01*
X11920182Y-9872079D02*
X11929705Y-9910174D01*
X11929705Y-9910174D02*
X11929705Y-9957793D01*
X11929705Y-9957793D02*
X11920182Y-9995889D01*
X11920182Y-9995889D02*
X11910658Y-10014936D01*
X11910658Y-10014936D02*
X11901134Y-10024460D01*
X11901134Y-10024460D02*
X11882086Y-10033984D01*
X11882086Y-10033984D02*
X11863039Y-10033984D01*
X11863039Y-10033984D02*
X11843991Y-10024460D01*
X11843991Y-10024460D02*
X11834467Y-10014936D01*
X11834467Y-10014936D02*
X11824943Y-9995889D01*
X11824943Y-9995889D02*
X11815420Y-9957793D01*
X11815420Y-9957793D02*
X11815420Y-9910174D01*
X11815420Y-9910174D02*
X11824943Y-9872079D01*
X11824943Y-9872079D02*
X11834467Y-9853031D01*
X11834467Y-9853031D02*
X11843991Y-9843508D01*
X11843991Y-9843508D02*
X11863039Y-9833984D01*
X12015420Y-10033984D02*
X12015420Y-9900650D01*
X12015420Y-9919698D02*
X12024943Y-9910174D01*
X12024943Y-9910174D02*
X12043991Y-9900650D01*
X12043991Y-9900650D02*
X12072563Y-9900650D01*
X12072563Y-9900650D02*
X12091610Y-9910174D01*
X12091610Y-9910174D02*
X12101134Y-9929222D01*
X12101134Y-9929222D02*
X12101134Y-10033984D01*
X12101134Y-9929222D02*
X12110658Y-9910174D01*
X12110658Y-9910174D02*
X12129705Y-9900650D01*
X12129705Y-9900650D02*
X12158277Y-9900650D01*
X12158277Y-9900650D02*
X12177324Y-9910174D01*
X12177324Y-9910174D02*
X12186848Y-9929222D01*
X12186848Y-9929222D02*
X12186848Y-10033984D01*
X12282086Y-10033984D02*
X12282086Y-9900650D01*
X12282086Y-9919698D02*
X12291610Y-9910174D01*
X12291610Y-9910174D02*
X12310658Y-9900650D01*
X12310658Y-9900650D02*
X12339229Y-9900650D01*
X12339229Y-9900650D02*
X12358277Y-9910174D01*
X12358277Y-9910174D02*
X12367801Y-9929222D01*
X12367801Y-9929222D02*
X12367801Y-10033984D01*
X12367801Y-9929222D02*
X12377324Y-9910174D01*
X12377324Y-9910174D02*
X12396372Y-9900650D01*
X12396372Y-9900650D02*
X12424943Y-9900650D01*
X12424943Y-9900650D02*
X12443991Y-9910174D01*
X12443991Y-9910174D02*
X12453515Y-9929222D01*
X12453515Y-9929222D02*
X12453515Y-10033984D01*
X12843991Y-9824460D02*
X12672563Y-10081603D01*
X13101134Y-9833984D02*
X13120182Y-9833984D01*
X13120182Y-9833984D02*
X13139229Y-9843508D01*
X13139229Y-9843508D02*
X13148753Y-9853031D01*
X13148753Y-9853031D02*
X13158277Y-9872079D01*
X13158277Y-9872079D02*
X13167801Y-9910174D01*
X13167801Y-9910174D02*
X13167801Y-9957793D01*
X13167801Y-9957793D02*
X13158277Y-9995889D01*
X13158277Y-9995889D02*
X13148753Y-10014936D01*
X13148753Y-10014936D02*
X13139229Y-10024460D01*
X13139229Y-10024460D02*
X13120182Y-10033984D01*
X13120182Y-10033984D02*
X13101134Y-10033984D01*
X13101134Y-10033984D02*
X13082086Y-10024460D01*
X13082086Y-10024460D02*
X13072563Y-10014936D01*
X13072563Y-10014936D02*
X13063039Y-9995889D01*
X13063039Y-9995889D02*
X13053515Y-9957793D01*
X13053515Y-9957793D02*
X13053515Y-9910174D01*
X13053515Y-9910174D02*
X13063039Y-9872079D01*
X13063039Y-9872079D02*
X13072563Y-9853031D01*
X13072563Y-9853031D02*
X13082086Y-9843508D01*
X13082086Y-9843508D02*
X13101134Y-9833984D01*
X13253515Y-10014936D02*
X13263039Y-10024460D01*
X13263039Y-10024460D02*
X13253515Y-10033984D01*
X13253515Y-10033984D02*
X13243991Y-10024460D01*
X13243991Y-10024460D02*
X13253515Y-10014936D01*
X13253515Y-10014936D02*
X13253515Y-10033984D01*
X13386848Y-9833984D02*
X13405896Y-9833984D01*
X13405896Y-9833984D02*
X13424944Y-9843508D01*
X13424944Y-9843508D02*
X13434467Y-9853031D01*
X13434467Y-9853031D02*
X13443991Y-9872079D01*
X13443991Y-9872079D02*
X13453515Y-9910174D01*
X13453515Y-9910174D02*
X13453515Y-9957793D01*
X13453515Y-9957793D02*
X13443991Y-9995889D01*
X13443991Y-9995889D02*
X13434467Y-10014936D01*
X13434467Y-10014936D02*
X13424944Y-10024460D01*
X13424944Y-10024460D02*
X13405896Y-10033984D01*
X13405896Y-10033984D02*
X13386848Y-10033984D01*
X13386848Y-10033984D02*
X13367801Y-10024460D01*
X13367801Y-10024460D02*
X13358277Y-10014936D01*
X13358277Y-10014936D02*
X13348753Y-9995889D01*
X13348753Y-9995889D02*
X13339229Y-9957793D01*
X13339229Y-9957793D02*
X13339229Y-9910174D01*
X13339229Y-9910174D02*
X13348753Y-9872079D01*
X13348753Y-9872079D02*
X13358277Y-9853031D01*
X13358277Y-9853031D02*
X13367801Y-9843508D01*
X13367801Y-9843508D02*
X13386848Y-9833984D01*
X13529706Y-9853031D02*
X13539229Y-9843508D01*
X13539229Y-9843508D02*
X13558277Y-9833984D01*
X13558277Y-9833984D02*
X13605896Y-9833984D01*
X13605896Y-9833984D02*
X13624944Y-9843508D01*
X13624944Y-9843508D02*
X13634467Y-9853031D01*
X13634467Y-9853031D02*
X13643991Y-9872079D01*
X13643991Y-9872079D02*
X13643991Y-9891127D01*
X13643991Y-9891127D02*
X13634467Y-9919698D01*
X13634467Y-9919698D02*
X13520182Y-10033984D01*
X13520182Y-10033984D02*
X13643991Y-10033984D01*
X13739229Y-10033984D02*
X13777325Y-10033984D01*
X13777325Y-10033984D02*
X13796372Y-10024460D01*
X13796372Y-10024460D02*
X13805896Y-10014936D01*
X13805896Y-10014936D02*
X13824944Y-9986365D01*
X13824944Y-9986365D02*
X13834467Y-9948270D01*
X13834467Y-9948270D02*
X13834467Y-9872079D01*
X13834467Y-9872079D02*
X13824944Y-9853031D01*
X13824944Y-9853031D02*
X13815420Y-9843508D01*
X13815420Y-9843508D02*
X13796372Y-9833984D01*
X13796372Y-9833984D02*
X13758277Y-9833984D01*
X13758277Y-9833984D02*
X13739229Y-9843508D01*
X13739229Y-9843508D02*
X13729706Y-9853031D01*
X13729706Y-9853031D02*
X13720182Y-9872079D01*
X13720182Y-9872079D02*
X13720182Y-9919698D01*
X13720182Y-9919698D02*
X13729706Y-9938746D01*
X13729706Y-9938746D02*
X13739229Y-9948270D01*
X13739229Y-9948270D02*
X13758277Y-9957793D01*
X13758277Y-9957793D02*
X13796372Y-9957793D01*
X13796372Y-9957793D02*
X13815420Y-9948270D01*
X13815420Y-9948270D02*
X13824944Y-9938746D01*
X13824944Y-9938746D02*
X13834467Y-9919698D01*
X14015420Y-9833984D02*
X13920182Y-9833984D01*
X13920182Y-9833984D02*
X13910658Y-9929222D01*
X13910658Y-9929222D02*
X13920182Y-9919698D01*
X13920182Y-9919698D02*
X13939229Y-9910174D01*
X13939229Y-9910174D02*
X13986848Y-9910174D01*
X13986848Y-9910174D02*
X14005896Y-9919698D01*
X14005896Y-9919698D02*
X14015420Y-9929222D01*
X14015420Y-9929222D02*
X14024944Y-9948270D01*
X14024944Y-9948270D02*
X14024944Y-9995889D01*
X14024944Y-9995889D02*
X14015420Y-10014936D01*
X14015420Y-10014936D02*
X14005896Y-10024460D01*
X14005896Y-10024460D02*
X13986848Y-10033984D01*
X13986848Y-10033984D02*
X13939229Y-10033984D01*
X13939229Y-10033984D02*
X13920182Y-10024460D01*
X13920182Y-10024460D02*
X13910658Y-10014936D01*
X14101134Y-9833984D02*
X14101134Y-9872079D01*
X14177325Y-9833984D02*
X14177325Y-9872079D01*
X14472563Y-10110174D02*
X14463039Y-10100650D01*
X14463039Y-10100650D02*
X14443991Y-10072079D01*
X14443991Y-10072079D02*
X14434468Y-10053031D01*
X14434468Y-10053031D02*
X14424944Y-10024460D01*
X14424944Y-10024460D02*
X14415420Y-9976841D01*
X14415420Y-9976841D02*
X14415420Y-9938746D01*
X14415420Y-9938746D02*
X14424944Y-9891127D01*
X14424944Y-9891127D02*
X14434468Y-9862555D01*
X14434468Y-9862555D02*
X14443991Y-9843508D01*
X14443991Y-9843508D02*
X14463039Y-9814936D01*
X14463039Y-9814936D02*
X14472563Y-9805412D01*
X14634468Y-9900650D02*
X14634468Y-10033984D01*
X14586848Y-9824460D02*
X14539229Y-9967317D01*
X14539229Y-9967317D02*
X14663039Y-9967317D01*
X14891610Y-10033984D02*
X14891610Y-9833984D01*
X14977325Y-10033984D02*
X14977325Y-9929222D01*
X14977325Y-9929222D02*
X14967801Y-9910174D01*
X14967801Y-9910174D02*
X14948753Y-9900650D01*
X14948753Y-9900650D02*
X14920182Y-9900650D01*
X14920182Y-9900650D02*
X14901134Y-9910174D01*
X14901134Y-9910174D02*
X14891610Y-9919698D01*
X15101134Y-10033984D02*
X15082087Y-10024460D01*
X15082087Y-10024460D02*
X15072563Y-10014936D01*
X15072563Y-10014936D02*
X15063039Y-9995889D01*
X15063039Y-9995889D02*
X15063039Y-9938746D01*
X15063039Y-9938746D02*
X15072563Y-9919698D01*
X15072563Y-9919698D02*
X15082087Y-9910174D01*
X15082087Y-9910174D02*
X15101134Y-9900650D01*
X15101134Y-9900650D02*
X15129706Y-9900650D01*
X15129706Y-9900650D02*
X15148753Y-9910174D01*
X15148753Y-9910174D02*
X15158277Y-9919698D01*
X15158277Y-9919698D02*
X15167801Y-9938746D01*
X15167801Y-9938746D02*
X15167801Y-9995889D01*
X15167801Y-9995889D02*
X15158277Y-10014936D01*
X15158277Y-10014936D02*
X15148753Y-10024460D01*
X15148753Y-10024460D02*
X15129706Y-10033984D01*
X15129706Y-10033984D02*
X15101134Y-10033984D01*
X15282087Y-10033984D02*
X15263039Y-10024460D01*
X15263039Y-10024460D02*
X15253515Y-10005412D01*
X15253515Y-10005412D02*
X15253515Y-9833984D01*
X15434468Y-10024460D02*
X15415420Y-10033984D01*
X15415420Y-10033984D02*
X15377325Y-10033984D01*
X15377325Y-10033984D02*
X15358277Y-10024460D01*
X15358277Y-10024460D02*
X15348753Y-10005412D01*
X15348753Y-10005412D02*
X15348753Y-9929222D01*
X15348753Y-9929222D02*
X15358277Y-9910174D01*
X15358277Y-9910174D02*
X15377325Y-9900650D01*
X15377325Y-9900650D02*
X15415420Y-9900650D01*
X15415420Y-9900650D02*
X15434468Y-9910174D01*
X15434468Y-9910174D02*
X15443991Y-9929222D01*
X15443991Y-9929222D02*
X15443991Y-9948270D01*
X15443991Y-9948270D02*
X15348753Y-9967317D01*
X15520182Y-10024460D02*
X15539230Y-10033984D01*
X15539230Y-10033984D02*
X15577325Y-10033984D01*
X15577325Y-10033984D02*
X15596372Y-10024460D01*
X15596372Y-10024460D02*
X15605896Y-10005412D01*
X15605896Y-10005412D02*
X15605896Y-9995889D01*
X15605896Y-9995889D02*
X15596372Y-9976841D01*
X15596372Y-9976841D02*
X15577325Y-9967317D01*
X15577325Y-9967317D02*
X15548753Y-9967317D01*
X15548753Y-9967317D02*
X15529706Y-9957793D01*
X15529706Y-9957793D02*
X15520182Y-9938746D01*
X15520182Y-9938746D02*
X15520182Y-9929222D01*
X15520182Y-9929222D02*
X15529706Y-9910174D01*
X15529706Y-9910174D02*
X15548753Y-9900650D01*
X15548753Y-9900650D02*
X15577325Y-9900650D01*
X15577325Y-9900650D02*
X15596372Y-9910174D01*
X15672563Y-10110174D02*
X15682087Y-10100650D01*
X15682087Y-10100650D02*
X15701134Y-10072079D01*
X15701134Y-10072079D02*
X15710658Y-10053031D01*
X15710658Y-10053031D02*
X15720182Y-10024460D01*
X15720182Y-10024460D02*
X15729706Y-9976841D01*
X15729706Y-9976841D02*
X15729706Y-9938746D01*
X15729706Y-9938746D02*
X15720182Y-9891127D01*
X15720182Y-9891127D02*
X15710658Y-9862555D01*
X15710658Y-9862555D02*
X15701134Y-9843508D01*
X15701134Y-9843508D02*
X15682087Y-9814936D01*
X15682087Y-9814936D02*
X15672563Y-9805412D01*
X16034468Y-10110174D02*
X16024944Y-10100650D01*
X16024944Y-10100650D02*
X16005896Y-10072079D01*
X16005896Y-10072079D02*
X15996372Y-10053031D01*
X15996372Y-10053031D02*
X15986849Y-10024460D01*
X15986849Y-10024460D02*
X15977325Y-9976841D01*
X15977325Y-9976841D02*
X15977325Y-9938746D01*
X15977325Y-9938746D02*
X15986849Y-9891127D01*
X15986849Y-9891127D02*
X15996372Y-9862555D01*
X15996372Y-9862555D02*
X16005896Y-9843508D01*
X16005896Y-9843508D02*
X16024944Y-9814936D01*
X16024944Y-9814936D02*
X16034468Y-9805412D01*
X16110658Y-9900650D02*
X16110658Y-10033984D01*
X16110658Y-9919698D02*
X16120182Y-9910174D01*
X16120182Y-9910174D02*
X16139230Y-9900650D01*
X16139230Y-9900650D02*
X16167801Y-9900650D01*
X16167801Y-9900650D02*
X16186849Y-9910174D01*
X16186849Y-9910174D02*
X16196372Y-9929222D01*
X16196372Y-9929222D02*
X16196372Y-10033984D01*
X16320182Y-10033984D02*
X16301134Y-10024460D01*
X16301134Y-10024460D02*
X16291611Y-10014936D01*
X16291611Y-10014936D02*
X16282087Y-9995889D01*
X16282087Y-9995889D02*
X16282087Y-9938746D01*
X16282087Y-9938746D02*
X16291611Y-9919698D01*
X16291611Y-9919698D02*
X16301134Y-9910174D01*
X16301134Y-9910174D02*
X16320182Y-9900650D01*
X16320182Y-9900650D02*
X16348753Y-9900650D01*
X16348753Y-9900650D02*
X16367801Y-9910174D01*
X16367801Y-9910174D02*
X16377325Y-9919698D01*
X16377325Y-9919698D02*
X16386849Y-9938746D01*
X16386849Y-9938746D02*
X16386849Y-9995889D01*
X16386849Y-9995889D02*
X16377325Y-10014936D01*
X16377325Y-10014936D02*
X16367801Y-10024460D01*
X16367801Y-10024460D02*
X16348753Y-10033984D01*
X16348753Y-10033984D02*
X16320182Y-10033984D01*
X16443992Y-9900650D02*
X16520182Y-9900650D01*
X16472563Y-9833984D02*
X16472563Y-10005412D01*
X16472563Y-10005412D02*
X16482087Y-10024460D01*
X16482087Y-10024460D02*
X16501134Y-10033984D01*
X16501134Y-10033984D02*
X16520182Y-10033984D01*
X16739230Y-9900650D02*
X16739230Y-10100650D01*
X16739230Y-9910174D02*
X16758277Y-9900650D01*
X16758277Y-9900650D02*
X16796373Y-9900650D01*
X16796373Y-9900650D02*
X16815420Y-9910174D01*
X16815420Y-9910174D02*
X16824944Y-9919698D01*
X16824944Y-9919698D02*
X16834468Y-9938746D01*
X16834468Y-9938746D02*
X16834468Y-9995889D01*
X16834468Y-9995889D02*
X16824944Y-10014936D01*
X16824944Y-10014936D02*
X16815420Y-10024460D01*
X16815420Y-10024460D02*
X16796373Y-10033984D01*
X16796373Y-10033984D02*
X16758277Y-10033984D01*
X16758277Y-10033984D02*
X16739230Y-10024460D01*
X16948754Y-10033984D02*
X16929706Y-10024460D01*
X16929706Y-10024460D02*
X16920182Y-10005412D01*
X16920182Y-10005412D02*
X16920182Y-9833984D01*
X17110658Y-10033984D02*
X17110658Y-9929222D01*
X17110658Y-9929222D02*
X17101135Y-9910174D01*
X17101135Y-9910174D02*
X17082087Y-9900650D01*
X17082087Y-9900650D02*
X17043992Y-9900650D01*
X17043992Y-9900650D02*
X17024944Y-9910174D01*
X17110658Y-10024460D02*
X17091611Y-10033984D01*
X17091611Y-10033984D02*
X17043992Y-10033984D01*
X17043992Y-10033984D02*
X17024944Y-10024460D01*
X17024944Y-10024460D02*
X17015420Y-10005412D01*
X17015420Y-10005412D02*
X17015420Y-9986365D01*
X17015420Y-9986365D02*
X17024944Y-9967317D01*
X17024944Y-9967317D02*
X17043992Y-9957793D01*
X17043992Y-9957793D02*
X17091611Y-9957793D01*
X17091611Y-9957793D02*
X17110658Y-9948270D01*
X17177325Y-9900650D02*
X17253515Y-9900650D01*
X17205896Y-9833984D02*
X17205896Y-10005412D01*
X17205896Y-10005412D02*
X17215420Y-10024460D01*
X17215420Y-10024460D02*
X17234468Y-10033984D01*
X17234468Y-10033984D02*
X17253515Y-10033984D01*
X17396373Y-10024460D02*
X17377325Y-10033984D01*
X17377325Y-10033984D02*
X17339230Y-10033984D01*
X17339230Y-10033984D02*
X17320182Y-10024460D01*
X17320182Y-10024460D02*
X17310658Y-10005412D01*
X17310658Y-10005412D02*
X17310658Y-9929222D01*
X17310658Y-9929222D02*
X17320182Y-9910174D01*
X17320182Y-9910174D02*
X17339230Y-9900650D01*
X17339230Y-9900650D02*
X17377325Y-9900650D01*
X17377325Y-9900650D02*
X17396373Y-9910174D01*
X17396373Y-9910174D02*
X17405896Y-9929222D01*
X17405896Y-9929222D02*
X17405896Y-9948270D01*
X17405896Y-9948270D02*
X17310658Y-9967317D01*
X17577325Y-10033984D02*
X17577325Y-9833984D01*
X17577325Y-10024460D02*
X17558277Y-10033984D01*
X17558277Y-10033984D02*
X17520182Y-10033984D01*
X17520182Y-10033984D02*
X17501135Y-10024460D01*
X17501135Y-10024460D02*
X17491611Y-10014936D01*
X17491611Y-10014936D02*
X17482087Y-9995889D01*
X17482087Y-9995889D02*
X17482087Y-9938746D01*
X17482087Y-9938746D02*
X17491611Y-9919698D01*
X17491611Y-9919698D02*
X17501135Y-9910174D01*
X17501135Y-9910174D02*
X17520182Y-9900650D01*
X17520182Y-9900650D02*
X17558277Y-9900650D01*
X17558277Y-9900650D02*
X17577325Y-9910174D01*
X17653516Y-10110174D02*
X17663039Y-10100650D01*
X17663039Y-10100650D02*
X17682087Y-10072079D01*
X17682087Y-10072079D02*
X17691611Y-10053031D01*
X17691611Y-10053031D02*
X17701135Y-10024460D01*
X17701135Y-10024460D02*
X17710658Y-9976841D01*
X17710658Y-9976841D02*
X17710658Y-9938746D01*
X17710658Y-9938746D02*
X17701135Y-9891127D01*
X17701135Y-9891127D02*
X17691611Y-9862555D01*
X17691611Y-9862555D02*
X17682087Y-9843508D01*
X17682087Y-9843508D02*
X17663039Y-9814936D01*
X17663039Y-9814936D02*
X17653516Y-9805412D01*
M02*
